<svg width="39" height="39" viewBox="0 0 39 39" fill="none" xmlns="http://www.w3.org/2000/svg">
<path fill-rule="evenodd" clip-rule="evenodd" d="M0.585006 38.0209H0.506419V37.9423H0.585006V38.0209ZM0.50294 18.0675H8.30214V36.9943H0.50294V18.0675ZM30.499 14.1152H38.2982V36.9943H30.499V14.1152ZM20.5002 5.1726H28.2994V36.9943H20.5002V5.1726ZM10.5014 22.9556H18.3006V36.9943H10.5014V22.9556ZM20.5002 1.25342H28.2994V3.85284H20.5002V1.25342ZM30.499 10.1959H38.2982V12.7958H30.499V10.1959ZM10.5014 19.0364H18.3006V21.6359H10.5014V19.0364ZM0.502563 14.1483H8.30177V16.7478H0.502563V14.1483ZM38.2158 0.225586H38.2944V0.30421H38.2158V0.225586Z" fill="black"/>
</svg>
