<svg width="39" height="39" viewBox="0 0 39 39" fill="none" xmlns="http://www.w3.org/2000/svg">
<path fill-rule="evenodd" clip-rule="evenodd" d="M0.742649 38.5338H0.664062V38.4552H0.742649V38.5338ZM31.8509 22.3476C31.7992 22.4293 31.6806 23.3079 31.2546 22.2174C30.7018 20.8857 28.422 20.4119 27.5622 22.0429C27.3018 22.5364 23.5104 35.6108 24.0894 36.7395C25.452 38.2657 26.42 37.7522 27.9775 36.9957C29.3446 40.6241 33.8063 36.894 35.2559 31.1372C36.0063 28.1579 35.4369 26.5091 35.8075 23.8573C36.1715 21.252 36.6619 19.0901 36.4304 16.2591C35.7336 7.72647 28.5511 0.733905 19.5461 0.738528C10.6837 0.743536 3.46965 7.66792 2.69536 15.986C2.4492 18.6279 2.90223 20.8017 3.33868 23.2517C3.88647 26.325 2.75777 31.8468 6.39157 36.429C6.81839 36.9664 7.71558 37.9995 8.49257 38.3062C10.1186 38.948 10.5662 38.1116 11.4175 37.2592C11.48 37.2915 11.5662 37.2869 11.5955 37.3728C11.6256 37.4598 11.7354 37.4621 11.7773 37.4829C13.5578 38.3666 15.1719 37.7133 15.3376 36.1489C15.4281 35.2964 14.4084 31.9812 14.1218 30.9396C12.8725 26.4028 12.4615 19.7181 8.80267 21.4943L7.48328 22.7652C6.65659 18.9438 4.22661 16.2892 7.26024 10.9881C7.53683 10.5043 8.00911 9.78584 8.25064 9.4611C8.71791 8.83241 9.14359 8.46227 9.46217 7.85362C12.2026 8.63139 11.7777 7.3482 14.0752 6.31003C17.442 4.7884 22.1013 4.86813 25.4069 6.49647C28.1585 7.85168 27.1924 8.85171 29.907 8.12749C30.3535 9.01697 31.1556 9.7138 31.8416 10.9827C32.4437 12.0972 32.8648 13.338 33.2192 14.6516C34.027 17.6413 32.5967 18.4723 31.8509 22.3472V22.3476ZM38.3738 0.738528H38.4524V0.817152H38.3738V0.738528Z" fill="black"/>
</svg>
