<svg width="39" height="39" viewBox="0 0 39 39" fill="none" xmlns="http://www.w3.org/2000/svg">
<path fill-rule="evenodd" clip-rule="evenodd" d="M0.0812818 38.4979H0V38.4166H0.0812818V38.4979ZM25.9632 19.2302L23.5675 21.6259H14.9416L12.5463 19.2302V2.53857L14.9416 0.142861H23.5675L25.9632 2.53857V19.2302ZM26.7178 22.2265L27.1882 21.4179C27.4509 20.8455 27.6813 20.2615 27.8338 19.6482C28.0187 18.9005 28.0557 18.2083 28.0904 17.4417C28.2206 14.5583 32.4045 14.8075 32.4045 17.4185C32.4045 19.5045 32.0705 20.9899 31.2631 22.8875C30.8547 23.8467 30.1798 24.8842 29.5315 25.7012C29.0515 26.3056 28.6035 26.7174 28.0677 27.2533C26.6836 28.6374 23.6495 30.1767 21.4418 30.4964V33.2095H23.3082C24.9065 33.2095 25.9774 34.7516 25.3414 36.2532C25.029 36.9909 24.3075 37.5244 23.4939 37.5244H14.9928C12.3494 37.5244 12.1996 33.2095 15.1901 33.2095H17.0569V30.4841C16.4297 30.3828 15.7352 30.1933 15.2405 30.0303C13.1973 29.3593 11.3929 28.251 9.86361 26.7216L9.35511 26.1773C9.34471 26.1665 9.33585 26.1561 9.32584 26.1446C9.2122 26.0075 9.10279 25.868 8.99994 25.7343C7.04455 23.3209 6.10461 20.5296 6.105 17.4054L6.10577 17.382C6.10538 14.7705 10.3671 14.5178 10.4206 17.5087C10.4522 19.2826 10.7916 20.3832 11.6187 21.933C12.0024 22.6506 12.5952 23.3899 13.2208 23.9103C13.3533 24.0212 13.445 24.1449 13.5656 24.2524C16.1566 26.5583 20.5558 26.9979 23.5417 25.2228C24.0976 24.8922 25.2278 24.138 25.6184 23.6426C26.0129 23.1422 26.3615 22.7662 26.7175 22.2269L26.7178 22.2265ZM38.4047 0.0107422H38.4856V0.0920376H38.4047V0.0107422Z" fill="black"/>
</svg>
