<svg width="39" height="39" viewBox="0 0 39 39" fill="none" xmlns="http://www.w3.org/2000/svg">
<path fill-rule="evenodd" clip-rule="evenodd" d="M0.428404 38.2041H0.345966H0.345581V38.1213H0.345966H0.428404H0.429174V38.2041H0.428404ZM21.2254 23.7683C19.5466 22.4046 19.5293 20.5609 21.1661 18.9145C22.8433 17.228 24.7109 17.2484 26.0954 19.037L21.2254 23.7683ZM28.2445 38.1213C28.2445 36.7614 28.434 29.5323 28.1386 28.8698C28.0719 28.7207 27.2321 27.8925 27.0434 27.6968C25.2371 25.8292 23.9624 27.5465 22.6399 25.0291L27.3485 20.4542C28.0796 20.7897 28.8428 21.5336 29.0257 22.6565C29.1756 23.5733 28.8767 23.5541 29.3805 24.2151C29.5731 24.4674 30.0778 24.8943 30.3494 25.1524C31.6938 26.4298 32.8418 27.686 34.1677 28.9896C36.2625 31.0497 37.2468 31.4565 35.269 33.3965C33.6168 35.0171 32.8387 33.4108 30.9461 31.6484L30.9349 38.0739L28.2445 38.1209V38.1213ZM4.0387 32.9235C4.03331 32.7547 4.03331 32.5745 4.0387 32.3815C4.24865 24.7633 7.88245 24.3403 10.5301 21.7674C12.8657 23.2748 15.7136 23.9998 18.7226 23.7733L18.7392 23.7721C19.1521 24.4532 19.7558 25.0811 20.5512 25.6177L20.96 25.8932L20.9677 25.9078C21.74 27.3786 22.7093 28.196 24.3491 28.4703C24.9628 28.5731 25.2344 28.5435 25.6855 29.0104C25.8997 29.2319 26.1493 29.4649 26.3712 29.7003C26.4729 30.6037 26.439 31.9616 26.4201 32.9685V38.0746H4.03909V32.9235H4.0387ZM18.0962 21.9161C12.5621 22.1307 8.72878 18.7731 7.28959 14.7171C4.61384 7.17599 11.2801 -0.743787 19.2619 0.653028C22.0228 1.13648 23.6835 2.3376 25.1412 3.77255C26.5834 5.19248 27.8396 7.17637 28.1652 9.97231C28.6043 13.7398 27.2129 15.4325 26.637 16.894C24.6134 15.2298 21.9531 15.4425 19.8263 17.5816C18.5073 18.9079 17.9313 20.4504 18.0958 21.9157L18.0962 21.9161ZM38.0577 0.40918H38.0584H38.1405H38.1412V0.491999H38.1405H38.0584H38.0577V0.40918Z" fill="black"/>
</svg>
