<svg width="39" height="39" viewBox="0 0 39 39" fill="none" xmlns="http://www.w3.org/2000/svg">
<path fill-rule="evenodd" clip-rule="evenodd" d="M0.590376 38.2049H0.51179V38.1263H0.590376V38.2049ZM38.2116 0.408813H38.2932V0.409585H38.3005V0.488171H38.2932V0.491256H38.2116V0.408813ZM30.0179 15.0973C29.6488 14.8723 29.1777 14.8924 28.8295 15.1177L19.0579 21.1403C16.6615 21.3244 14.4484 23.2301 14.4484 26.0573C14.4484 28.7816 16.6611 30.9742 19.3854 30.9742C22.2125 30.9742 24.1174 28.7819 24.3023 26.3851L30.3657 16.634C30.6935 16.122 30.5295 15.4252 30.0175 15.0977L30.0179 15.0973ZM38.2932 24.7256C37.9245 20.7716 36.3062 17.0643 33.7045 14.0934L27.1079 25.3604C27.292 26.6513 28.4192 27.6139 29.7301 27.6139H35.6502C36.3875 27.6139 37.1048 27.3066 37.6171 26.7538C38.1087 26.201 38.3541 25.4629 38.2928 24.7256V24.7252L38.2932 24.7256ZM20.5129 7.64058V18.1695L31.0826 11.6145C28.0509 9.25891 24.384 7.86516 20.5129 7.64019V7.64058ZM5.45612 13.7036C2.64939 16.7357 0.908585 20.6068 0.519125 24.7248C0.457875 25.4617 0.703244 26.1998 1.19479 26.753C1.68633 27.3054 2.40362 27.6132 3.16173 27.6132H9.08183C10.3931 27.6132 11.4995 26.6501 11.704 25.3596C11.909 23.9671 12.5034 22.6762 13.384 21.5899L5.47692 13.6832L5.45612 13.704V13.7036ZM18.3002 7.64058C14.1417 7.88597 10.2082 9.46384 7.05364 12.1677L15.0019 20.116C15.9854 19.4399 17.1125 19.0096 18.3002 18.8455V7.66062V7.64019V7.64058ZM38.2119 38.8956H38.2936V38.978H38.2119V38.8956Z" fill="black"/>
</svg>
