<svg width="39" height="39" viewBox="0 0 39 39" fill="none" xmlns="http://www.w3.org/2000/svg">
<path fill-rule="evenodd" clip-rule="evenodd" d="M0.584967 38.5338H0.506381V38.4552H0.584967V38.5338ZM19.729 13.8619C22.7699 14.0321 25.1849 16.5527 25.1849 19.6364C25.1849 22.831 22.595 25.4209 19.4004 25.4209C16.2061 25.4209 13.6166 22.831 13.6166 19.6364C13.6166 19.6364 13.9163 19.6445 13.9456 19.6445C17.1399 19.6445 19.7286 17.0554 19.7293 13.8623L19.729 13.8619ZM38.2982 19.6653C33.5542 26.5503 26.8513 30.8448 19.42 30.8448C11.9687 30.8448 5.24923 26.5272 0.503296 19.6063C5.24653 12.7213 11.9498 8.42754 19.3803 8.42754C26.8324 8.42754 33.5523 12.7451 38.2982 19.6653ZM38.2161 0.738525H38.2947V0.81715H38.2161V0.738525Z" fill="black"/>
</svg>
