<svg width="39" height="39" viewBox="0 0 39 39" fill="none" xmlns="http://www.w3.org/2000/svg">
<path fill-rule="evenodd" clip-rule="evenodd" d="M18.4553 7.62538C12.3988 8.11192 7.29037 13.5008 7.82313 20.1759C8.48378 28.4593 17.3192 33.4437 24.9227 29.5461C26.1416 28.9216 26.585 28.427 27.4356 27.7371C27.7942 27.4466 27.8685 27.2601 28.1675 26.9701C29.0073 26.1573 29.9368 24.4962 30.3602 23.3436C30.9465 21.7488 31.2211 20.1682 31.0759 18.2968C30.599 12.1579 25.1989 7.08262 18.4553 7.62501V7.62538ZM38.2907 0.439453H38.3735V0.522291H38.2907V0.439453ZM0.661085 38.2347H0.578247V38.1519H0.661085V38.2347ZM16.5461 1.42948C14.6496 1.72957 11.8903 2.61519 10.5605 3.54357C8.42059 5.03785 10.0389 8.29722 12.4227 7.59612C12.8888 7.45898 13.353 7.16967 13.8075 6.96242C14.7848 6.51595 15.7714 6.18275 16.8477 5.97627C17.4629 5.85877 17.9364 5.82757 18.4086 5.514C20.2989 4.25972 19.5034 0.961822 16.5461 1.42948ZM7.02492 6.89771C5.74753 7.1092 5.36 7.93702 4.61691 8.95323C3.74823 10.1409 1.76474 13.8017 2.02091 15.321C2.20659 16.4227 3.22625 17.3858 4.56759 17.1901C6.08228 16.9693 6.32035 15.8514 6.6605 14.8568C7.9379 11.1205 9.84052 10.5681 9.54775 8.76679C9.3744 7.69973 8.30501 6.68547 7.02492 6.89734V6.89771ZM1.43036 20.1459V20.8562C1.55055 21.1266 1.64031 22.2827 1.72082 22.6995C2.05905 24.4384 3.11803 27.6488 4.24865 28.8203C5.35617 29.9683 8.01457 29.3546 8.02921 27.145C8.03845 25.7747 6.49987 24.8976 5.98445 20.4614C5.64738 17.5603 2.30481 17.7013 1.58945 19.6986L1.42999 20.1463L1.43036 20.1459ZM20.3621 4.21041C20.6899 5.952 22.3787 5.99245 23.4115 6.31488C27.0877 7.46284 29.9414 9.93904 31.6834 13.4885C34.5221 19.2718 32.3317 25.6214 28.9595 28.8588C23.9574 33.661 16.5588 34.0994 11.1222 29.9005C10.8714 29.7067 10.6714 29.5272 10.3875 29.3673C8.9414 28.5534 7.47525 29.5904 7.14049 30.726C6.6397 32.4271 8.1024 33.3343 8.93448 33.9318C14.9127 38.2236 22.7497 38.3099 28.7703 34.7204C35.7413 30.5638 39.3913 21.7118 36.5553 13.4569C36.1365 12.2373 35.5225 10.8855 34.9031 9.92362C34.4724 9.25449 33.8475 8.23637 33.2986 7.66778L32.7019 6.99669C32.2705 6.4543 31.839 6.14727 31.3902 5.71429C31.1437 5.4766 30.9353 5.32637 30.6691 5.11065C30.446 4.92959 30.2141 4.73816 29.953 4.55903C28.9656 3.88143 27.944 3.23002 26.6867 2.69688C25.7344 2.29316 23.8541 1.58741 22.7512 1.51345C21.2966 1.41637 20.0774 2.69262 20.3625 4.21117L20.3621 4.21041ZM24.3218 18.1747L17.3339 14.1395C16.9066 13.893 16.4178 13.893 15.9906 14.1395C15.5634 14.3864 15.3192 14.8098 15.3192 15.3029V23.3721C15.3192 23.8652 15.5638 24.2885 15.9906 24.5355C16.4178 24.782 16.9066 24.782 17.3339 24.5355L24.3218 20.5003C24.7494 20.2537 24.9932 19.8304 24.9932 19.3373C24.9932 18.8442 24.749 18.4208 24.3218 18.1743V18.1747Z" fill="black"/>
</svg>
