<svg width="39" height="39" viewBox="0 0 39 39" fill="none" xmlns="http://www.w3.org/2000/svg">
<path fill-rule="evenodd" clip-rule="evenodd" d="M0.426478 38.1258H0.345581V38.0449H0.426478V38.1258ZM7.81041 2.97396H30.6753C34.2617 2.97396 37.1955 5.90896 37.1955 9.49422V28.9618C37.1955 32.547 34.2609 35.4817 30.6753 35.4817H7.81041C4.22592 35.4817 1.29053 32.5478 1.29053 28.9618V9.49422C1.29053 5.90781 4.22438 2.97396 7.81041 2.97396ZM9.79122 21.861C12.2235 21.861 14.1947 23.8329 14.1947 26.2648C14.1947 28.6971 12.2231 30.6687 9.79122 30.6687C7.35893 30.6687 5.38737 28.6968 5.38737 26.2648C5.38737 23.8326 7.35932 21.861 9.79122 21.861ZM18.9734 22.3025C19.9719 22.3025 20.7885 23.1191 20.7885 24.1176V28.4121C20.7885 29.4106 19.9719 30.2273 18.9734 30.2273C17.9753 30.2273 17.1582 29.4106 17.1582 28.4121V24.1176C17.1582 23.1191 17.9753 22.3025 18.9734 22.3025ZM28.2919 21.861C30.7242 21.861 32.6958 23.8329 32.6958 26.2648C32.6958 28.6971 30.7238 30.6687 28.2919 30.6687C25.8596 30.6687 23.8884 28.6968 23.8884 26.2648C23.8884 23.8326 25.86 21.861 28.2919 21.861ZM7.92174 7.48298H30.5782C32.0097 7.48298 33.18 8.65326 33.18 10.0844V15.6443C33.18 17.0758 32.0093 18.2461 30.5782 18.2461H7.92174C6.49026 18.2461 5.32034 17.0754 5.32034 15.6443V10.0844C5.32034 8.65287 6.49064 7.48298 7.92174 7.48298ZM9.94107 9.0616C10.6919 9.0616 11.3055 9.67525 11.3055 10.4261V15.303C11.3055 16.0534 10.6919 16.6674 9.94107 16.6674C9.19066 16.6674 8.57662 16.0534 8.57662 15.303V10.4261C8.57662 9.67525 9.19066 9.0616 9.94107 9.0616ZM28.4417 9.0616C29.1922 9.0616 29.8062 9.67525 29.8062 10.4261V15.303C29.8062 16.0534 29.1922 16.6674 28.4417 16.6674C27.6909 16.6674 27.0773 16.0534 27.0773 15.303V10.4261C27.0773 9.67525 27.6909 9.0616 28.4417 9.0616ZM22.2747 9.0616C23.0255 9.0616 23.6392 9.67525 23.6392 10.4261V15.303C23.6392 16.0534 23.0255 16.6674 22.2747 16.6674C21.5239 16.6674 20.9103 16.0534 20.9103 15.303V10.4261C20.9103 9.67525 21.5239 9.0616 22.2747 9.0616ZM16.1081 9.0616C16.8585 9.0616 17.4725 9.67525 17.4725 10.4261V15.303C17.4725 16.0534 16.8585 16.6674 16.1081 16.6674C15.3573 16.6674 14.7436 16.0534 14.7436 15.303V10.4261C14.7436 9.67525 15.3573 9.0616 16.1081 9.0616ZM38.0596 0.330566H38.1409V0.411448H38.0596V0.330566Z" fill="black"/>
</svg>
