<svg width="38" height="38" viewBox="0 0 38 38" fill="none" xmlns="http://www.w3.org/2000/svg">
<path fill-rule="evenodd" clip-rule="evenodd" d="M0.0782916 37.796H0V37.7177H0.0782916V37.796ZM16.342 8.27165L25.4224 17.3535C26.4528 18.3838 26.4528 20.0657 25.4224 21.0975L23.9838 22.5361L27.0344 25.3826C27.2692 25.6021 27.2818 25.9711 27.0623 26.2046L26.1005 27.235C25.881 27.4699 25.5119 27.4825 25.277 27.263L22.1621 24.3564L20.8913 25.6272C19.8609 26.6562 18.1776 26.6576 17.1473 25.6272L8.06543 16.5454C7.03506 15.515 7.03646 13.8304 8.06543 12.8014L12.5952 8.27165C13.6255 7.24128 15.3088 7.24128 16.3392 8.27165H16.342ZM23.5672 36.3923C23.5672 37.2633 24.1418 37.666 24.9638 37.796H26.4654C28.2353 37.5988 30.2401 36.8635 30.6819 36.6607C31.2523 36.3979 32.0464 35.9282 32.5134 35.5772C32.793 35.3689 33.0405 35.1998 33.3061 34.9635C33.6193 34.6853 33.8108 34.565 34.1142 34.2645C36.1022 32.2806 37.7617 28.9994 37.7617 26.1711V26.1319V26.0914V24.6164C37.731 24.1593 37.6471 23.7398 37.4388 23.4854C37.1871 23.1778 36.825 23.0031 36.4517 22.9625H36.1302C35.7345 23.0045 35.364 23.203 35.1404 23.5595C34.7097 24.2459 35.1767 25.7223 34.6412 27.8739C33.6179 31.9856 29.7438 35.0446 25.4783 34.9887C24.8017 34.9789 24.5556 34.9663 24.1502 35.2697C23.7965 35.5367 23.5742 35.7884 23.5672 36.3644V36.3923ZM23.8692 31.5816C23.8692 34.5469 31.5669 32.8888 32.8238 26.9652C33.0349 25.9697 33.2236 23.9649 31.8227 23.9649C29.8752 23.9649 30.324 25.0247 30.0738 26.4339C29.748 28.2654 28.1654 29.7795 26.2305 30.1262C25.4867 30.259 25.168 30.0465 24.5864 30.3932C24.2368 30.6015 23.8678 31.0573 23.8678 31.5816H23.8692ZM0.548041 26.9232L8.10039 19.3723L14.3805 25.6538L6.82955 33.2047C6.13331 33.8996 4.99668 33.901 4.30045 33.2033L0.549439 29.4523C-0.146797 28.7547 -0.146797 27.6181 0.548041 26.9232ZM19.1675 8.3038L26.9491 0.522177C27.6439 -0.174059 28.782 -0.174059 29.4782 0.522177L33.2306 4.27318C33.9268 4.96942 33.9268 6.10745 33.2306 6.80228L25.449 14.5839L19.1675 8.30241V8.3038ZM37.7114 0.000699032H37.7897V0.0789906H37.7114V0.000699032Z" fill="black"/>
</svg>
