<?xml version="1.0" encoding="UTF-8"?>
<!DOCTYPE svg PUBLIC "-//W3C//DTD SVG 1.1//EN" "http://www.w3.org/Graphics/SVG/1.1/DTD/svg11.dtd">
<!-- Creator: CorelDRAW -->
<svg xmlns="http://www.w3.org/2000/svg" xml:space="preserve" width="9.9982mm" height="10mm" version="1.1" style="shape-rendering:geometricPrecision; text-rendering:geometricPrecision; image-rendering:optimizeQuality; fill-rule:evenodd; clip-rule:evenodd"
viewBox="0 0 118.26 118.28"
 xmlns:xlink="http://www.w3.org/1999/xlink"
 xmlns:xodm="http://www.corel.com/coreldraw/odm/2003">
 <defs>
  <style type="text/css">
   <![CDATA[
    .fil0 {fill:black}
   ]]>
  </style>
 </defs>
 <g id="Camada_x0020_1">
  <metadata id="CorelCorpID_0Corel-Layer"/>
  <path class="fil0" d="M118.02 0l0.25 0 0 0.25 -0.25 0 0 -0.25zm-67.44 6.93l17.1 0c4.05,0 3.75,4.16 5.08,6.93l-27.26 0c1.33,-2.77 1.03,-6.93 5.08,-6.93zm-12.48 6.93c-6.77,0 -13.56,0.04 -20.33,-0 -3.39,-0.02 -5.63,1.11 -7.33,2.83 -1.07,1.08 -1.47,1.39 -2.22,2.87 -1.64,3.21 -1.07,7.9 -1.07,12.33 0,1.72 1.73,2.77 3.47,2.77l97.49 0c1.42,0 3,-1.59 3,-3 0,-7.19 1.01,-10.62 -3.29,-14.96 -1.75,-1.76 -3.86,-2.85 -7.33,-2.83 -6.77,0.04 -13.56,0 -20.33,0 -0.45,-1.92 -2.36,-7.57 -3.37,-9.11 -1.63,-2.48 -4.69,-4.76 -7.95,-4.76l-19.41 0c-3.16,0 -6.28,2.23 -7.86,4.62 -1.08,1.64 -2.97,7.15 -3.46,9.25zm-37.86 104.42l-0.25 0 0 -0.25 0.25 0 0 0.25zm102.84 -76.23l-88.16 0 5.36 67.29c0.39,4.89 4.03,8.94 8.93,8.94l59.13 0c4.91,0 8.51,-4.04 8.93,-8.94l5.81 -67.29zm-64.93 6.92c1.97,0 3.58,1.61 3.58,3.58l0 48.25c0,1.97 -1.61,3.58 -3.58,3.58 -1.97,0 -3.58,-1.61 -3.58,-3.58l0 -48.25c0,-1.97 1.61,-3.58 3.58,-3.58zm41.69 0c-1.97,0 -3.58,1.61 -3.58,3.58l0 48.25c0,1.97 1.61,3.58 3.58,3.58 1.97,0 3.58,-1.61 3.58,-3.58l0 -48.25c0,-1.97 -1.61,-3.58 -3.58,-3.58zm-20.84 0c-1.97,0 -3.58,1.61 -3.58,3.58l0 48.25c0,1.97 1.61,3.58 3.58,3.58 1.97,0 3.58,-1.61 3.58,-3.58l0 -48.25c0,-1.97 -1.61,-3.58 -3.58,-3.58z"/>
 </g>
</svg>
