<svg width="39" height="39" viewBox="0 0 39 39" fill="none" xmlns="http://www.w3.org/2000/svg">
<path fill-rule="evenodd" clip-rule="evenodd" d="M0.743124 38.2041H0.659534V38.1213H0.743124V38.2041ZM19.5573 19.24L17.5307 22.6253L19.5573 26.011L21.5844 22.6253L19.5573 19.24ZM5.19706 32.8588C5.32188 33.3511 5.76411 33.6928 6.2726 33.6928H12.8279L10.7516 29.7396L10.7431 29.7311L8.68332 25.8034H3.39615L5.18898 32.8591L5.19706 32.8584V32.8588ZM15.2213 33.6928H23.9362C23.9446 33.5348 23.9862 33.3761 24.0614 33.2259L26.4382 28.6895L28.8146 24.1527C29.04 23.7275 29.4984 23.5106 29.9491 23.5614H36.2791L38.4225 15.1301C38.6806 14.1212 37.5218 13.345 36.6878 13.9709L28.7568 19.8671L20.5166 5.4479C20.0913 4.70558 19.0153 4.70558 18.5985 5.4479L10.3582 19.8671L2.4273 13.9709C1.5933 13.3534 0.44263 14.1289 0.692639 15.1301L2.83604 23.5614H9.20759C9.65791 23.5025 10.1163 23.7286 10.3421 24.1527L12.7185 28.6895L15.0953 33.2259C15.1704 33.3761 15.2117 33.5348 15.2201 33.6928H15.2209H15.2213ZM26.338 33.6928H32.8425C33.3514 33.6928 33.7936 33.3511 33.918 32.8588L35.7112 25.803H30.4738L28.414 29.7307L28.4059 29.7392L26.3295 33.6924L26.338 33.6931V33.6928ZM32.5347 14.3115L29.4402 16.6132L27.3558 12.9686L29.7492 9.78242C30.3243 9.01545 31.5343 9.29048 31.7173 10.2331L32.5347 14.3196V14.3115ZM11.7605 12.9601L9.67565 16.6047L6.58153 14.303L7.39896 10.2166C7.58271 9.2824 8.80005 9.00734 9.36709 9.76623L11.7605 12.9524V12.9601ZM19.5578 19.2315L17.5311 22.6172L19.5578 26.0026L21.5848 22.6172L19.5578 19.2315ZM23.8283 23.1847L20.5088 28.7222C20.0836 29.4395 19.0408 29.4395 18.6074 28.7222L15.2879 23.1847C15.0795 22.8345 15.0795 22.393 15.2879 22.0421L18.6074 16.5045C19.0327 15.7873 20.0755 15.7873 20.5088 16.5045L23.8283 22.0421C24.0367 22.3923 24.0367 22.8337 23.8283 23.1847ZM17.523 22.6176L19.55 26.0033L21.5767 22.6176L19.55 19.2319L17.523 22.6176ZM38.3723 0.408813H38.4556V0.492404H38.3723V0.408813Z" fill="black"/>
</svg>
