<svg width="39" height="39" viewBox="0 0 39 39" fill="none" xmlns="http://www.w3.org/2000/svg">
<path fill-rule="evenodd" clip-rule="evenodd" d="M0.584934 38.6913H0.506348V38.6127H0.584934V38.6913ZM35.2776 12.9219C36.8093 13.321 37.948 14.7205 37.948 16.3715V30.5616C37.948 32.5208 36.3435 34.1253 34.3843 34.1253H32.4894V36.784C32.4894 37.5244 32.0961 38.1581 31.4327 38.4871C30.7694 38.8161 30.0267 38.7448 29.4377 38.2968L26.1432 35.7902L23.9536 34.1249H15.852L19.7983 31.1232H29.9319C29.9777 31.1232 30.0236 31.1228 30.0694 31.1217V31.1213C32.5834 31.0569 34.6775 29.241 35.1682 26.8523L35.1686 26.8511L35.1936 26.7213L35.194 26.7197L35.2156 26.5895L35.216 26.5884L35.2345 26.4566V26.4555L35.2495 26.3226L35.2499 26.3218L35.2615 26.1881L35.2618 26.1874L35.2707 26.0521V26.0514L35.2757 25.9154L35.2761 25.915L35.2776 25.7779V25.7775V12.9222V12.9219ZM4.41712 0.896006H29.9319C31.8919 0.896006 33.4956 2.49969 33.4956 4.4597V25.7775C33.4956 27.7375 31.8919 29.3416 29.9319 29.3416H19.1923C19.1634 29.3659 19.1341 29.3897 19.1033 29.4125L14.7461 32.7273L11.4513 35.2339C10.8623 35.6819 10.1196 35.7524 9.45659 35.4238C8.79324 35.0952 8.39992 34.4612 8.39992 33.7208V29.342H4.41712C2.45711 29.342 0.853424 27.7379 0.853424 25.7779V4.46008C0.853424 2.50007 2.45711 0.896401 4.41712 0.896401V0.896006ZM9.94812 17.2294H17.3051C18.5617 17.2294 19.5895 18.2572 19.5895 19.5138V19.5142C19.5895 20.7708 18.5617 21.7985 17.3051 21.7985H9.94812C8.69191 21.7985 7.66376 20.7708 7.66376 19.5142V19.5138C7.66376 18.2572 8.69191 17.2294 9.94812 17.2294ZM9.94812 8.91364H24.2206C25.4772 8.91364 26.505 9.94141 26.505 11.198V11.1984C26.505 12.4546 25.4772 13.4827 24.2206 13.4827H9.94812C8.69191 13.4827 7.66376 12.4546 7.66376 11.1984V11.198C7.66376 9.94141 8.69191 8.91364 9.94812 8.91364ZM38.2165 0.89563H38.2951V0.974217H38.2165V0.89563Z" fill="black"/>
</svg>
