<svg width="39" height="39" viewBox="0 0 39 39" fill="none" xmlns="http://www.w3.org/2000/svg">
<path fill-rule="evenodd" clip-rule="evenodd" d="M0.742726 38.0731H0.664139V37.9945H0.742726V38.0731ZM37.8496 7.54814L31.1857 0.88418C30.3775 0.0759848 29.0596 0.0759848 28.2514 0.88418L24.1434 4.99221L33.7416 14.5904L37.8496 10.4824C38.6578 9.67418 38.6578 8.35634 37.8496 7.54814ZM22.0394 7.09664L1.70811 27.4276C1.33637 27.7993 1.13723 28.2419 1.1041 28.7666L0.835984 33.0987L0.664553 35.8696C0.626801 36.4837 0.832498 37.0291 1.26857 37.4652C1.70464 37.9013 2.24934 38.1071 2.86416 38.0693L5.63504 37.8978L9.96725 37.6298C10.4923 37.597 10.9342 37.3986 11.3063 37.0257L31.6371 16.6945L22.0394 7.09664ZM38.3735 0.277832H38.4521V0.356456H38.3735V0.277832Z" fill="black"/>
</svg>
