<svg width="39" height="39" viewBox="0 0 39 39" fill="none" xmlns="http://www.w3.org/2000/svg">
<path fill-rule="evenodd" clip-rule="evenodd" d="M0.745764 38.7193H0.663716H0.662964V38.6364H0.663716H0.745764H0.74693V38.7193H0.745764ZM31.327 6.30243H26.6335V5.66296C26.6335 5.00539 26.0976 4.46954 25.44 4.46954H23.517C23.0035 2.76686 21.4226 1.52877 19.5585 1.52877C17.6936 1.52877 16.1123 2.77187 15.5996 4.46954H13.6765C13.0189 4.46954 12.4831 5.00539 12.4831 5.66296V6.30243H7.78957C7.132 6.30243 6.59613 6.83828 6.59613 7.49585V36.921C6.59613 37.5786 7.132 38.1144 7.78957 38.1144H31.3324C31.99 38.1144 32.5258 37.5786 32.5258 36.921V7.49585C32.5258 6.83828 31.99 6.30243 31.3324 6.30243H31.3274H31.327ZM14.8649 6.85715H16.6123C17.2699 6.85715 17.8057 6.32131 17.8057 5.66373C17.8057 4.69991 18.5893 3.91637 19.5531 3.91637C20.5169 3.91637 21.3009 4.69991 21.3009 5.66373C21.3009 6.32131 21.8363 6.85715 22.4939 6.85715H24.2416C24.2416 7.11872 24.2416 8.56407 24.2416 8.72625H14.8595C14.8595 8.57293 14.8595 7.11872 14.8595 6.85715H14.8649ZM24.2832 30.9536H14.8295C14.1719 30.9536 13.6361 30.4177 13.6361 29.7601C13.6361 29.1026 14.1719 28.5667 14.8295 28.5667H24.2832C24.9408 28.5667 25.4766 29.1026 25.4766 29.7601C25.4766 30.4177 24.9408 30.9536 24.2832 30.9536ZM24.2832 24.6163H14.8295C14.1719 24.6163 13.6361 24.0804 13.6361 23.4229C13.6361 22.7653 14.1719 22.2298 14.8295 22.2298H24.2832C24.9408 22.2298 25.4766 22.7653 25.4766 23.4229C25.4766 24.0804 24.9408 24.6163 24.2832 24.6163ZM24.2832 18.2782H14.8295C14.1719 18.2782 13.6361 17.7428 13.6361 17.0852C13.6361 16.4276 14.1719 15.8918 14.8295 15.8918H24.2832C24.9408 15.8918 25.4766 16.4276 25.4766 17.0852C25.4766 17.7428 24.9408 18.2782 24.2832 18.2782ZM38.375 0.923584H38.3754H38.4579H38.4582V1.0064H38.4579H38.3754H38.375V0.923584Z" fill="black"/>
</svg>
