<svg width="39" height="39" viewBox="0 0 39 39" fill="none" xmlns="http://www.w3.org/2000/svg">
<path fill-rule="evenodd" clip-rule="evenodd" d="M0.585767 38.7174H0.503325H0.50293V38.6346H0.503325H0.585767H0.586539V38.7174H0.585767ZM12.6744 12.0523C9.23861 11.4321 5.65682 11.8162 2.40131 13.2042C1.80615 13.4576 1.41014 13.948 1.28726 14.5832C1.16398 15.2185 1.34888 15.8214 1.80614 16.2786L6.69423 21.1667C6.15029 22.4171 5.69882 23.6814 5.34094 24.9496C5.1884 25.4908 5.32939 26.0317 5.72694 26.4292C8.08141 28.7837 10.4363 31.1385 12.7907 33.493C13.1883 33.8906 13.7291 34.0316 14.2704 33.879C15.5385 33.5211 16.8036 33.0693 18.0533 32.5257L22.9413 37.4138C23.3986 37.8711 24.0015 38.056 24.6367 37.9327C25.2719 37.8094 25.7623 37.4138 26.0158 36.8186C27.4041 33.5631 27.7882 29.9813 27.1676 26.5455C27.5182 26.2223 27.8637 25.8907 28.205 25.5497C34.7476 19.0071 37.9488 10.6297 37.5112 3.12983C37.4661 2.35977 36.8598 1.75343 36.0897 1.70836C28.5899 1.27114 20.2128 4.47193 13.6698 11.0145C13.3289 11.3558 12.9972 11.7018 12.674 12.0519L12.6744 12.0523ZM5.60712 28.3545L3.67832 30.2833C3.1471 30.8146 3.1471 31.6875 3.67832 32.2187V32.2191C4.20954 32.7503 5.08169 32.7511 5.61369 32.2191L7.54248 30.2903L5.60712 28.3545ZM8.94777 31.6952L7.01897 33.624C6.48814 34.1548 6.48814 35.0289 7.01897 35.5593V35.5597C7.54981 36.0906 8.42233 36.0917 8.95432 35.5597L10.8831 33.6305L8.94777 31.6952ZM30.3873 8.83303C28.6858 7.13151 25.928 7.13151 24.2265 8.83303C22.5245 10.5346 22.5245 13.2924 24.2265 14.9939C25.928 16.6958 28.6858 16.6958 30.3873 14.9939C32.0888 13.2924 32.0888 10.5346 30.3873 8.83303ZM38.2146 0.922119H38.2154H38.2975H38.2982V1.00494H38.2975H38.2154H38.2146V0.922119Z" fill="black"/>
</svg>
