<svg width="39" height="39" viewBox="0 0 39 39" fill="none" xmlns="http://www.w3.org/2000/svg">
<path fill-rule="evenodd" clip-rule="evenodd" d="M1.43231 27.0856L4.62002 25.5886L15.8038 30.8423C17.7638 31.763 20.7219 31.763 22.6823 30.8423L33.8661 25.5886L37.0538 27.0856C38.5038 27.7663 38.5038 28.8808 37.0538 29.5618L21.8791 36.6904C20.4295 37.3714 18.0577 37.3714 16.6077 36.6904L1.43308 29.5618C-0.0165085 28.8808 -0.0165085 27.7663 1.43308 27.0856H1.43231ZM0.428808 38.7174H0.428038H0.3456H0.345215V38.6346H0.3456H0.428038H0.428808V38.7174ZM38.0569 0.922119H38.0577H38.1397H38.1405V1.00494H38.1397H38.0577H38.0569V0.922119ZM1.4327 10.0777L16.607 2.94916C18.0569 2.26809 20.4288 2.26809 21.8784 2.94916L37.053 10.0777C38.5026 10.7588 38.5026 11.8728 37.053 12.5539L21.8784 19.6824C20.4288 20.3635 18.0569 20.3635 16.607 19.6824L1.4327 12.5539C-0.017279 11.8728 -0.017279 10.7588 1.4327 10.0777ZM12.8726 10.5816L11.774 11.0808L12.096 11.3913C12.1184 11.4125 12.1276 11.4402 12.123 11.4695C12.1184 11.4988 12.1006 11.5215 12.0729 11.5342L11.1199 11.9668C11.0829 11.9838 11.0397 11.9753 11.0112 11.9452L9.01194 9.82383C8.99152 9.80187 8.98343 9.7749 8.98882 9.74639C8.99383 9.71789 9.01117 9.69632 9.03852 9.68361L9.91567 9.28529C9.93377 9.27682 9.9515 9.27527 9.97114 9.27835L14.7306 10.1466C14.771 10.154 14.8007 10.184 14.8072 10.2233C14.8134 10.2622 14.7937 10.2984 14.7571 10.3146L13.8041 10.7476C13.7856 10.7561 13.7671 10.758 13.7467 10.7541L12.8726 10.5812V10.5816ZM11.1295 10.4803L11.5236 10.3011L10.7932 10.1544L11.1291 10.4803H11.1295ZM17.0438 14.95C23.6696 11.7576 20.8267 13.124 27.4525 9.93131C28.0985 9.62082 29.3297 9.68399 30.1845 10.0735C31.0393 10.4633 31.2092 11.0396 30.5624 11.3501C23.9351 14.542 26.7818 13.176 20.1545 16.3691C19.5085 16.6804 18.2773 16.6164 17.4217 16.2266C16.5665 15.8364 16.399 15.2601 17.0438 14.95ZM14.3534 7.32681L18.3097 5.5629C18.968 5.26897 20.1861 5.31095 21.0424 5.70542C21.8984 6.10104 22.0733 6.71123 21.4211 7.00091L17.4641 8.76485C16.8111 9.0553 15.5873 9.01564 14.7321 8.62078C13.8761 8.22593 13.6951 7.62035 14.3534 7.32681ZM12.3846 12.8247C19.01 9.63353 16.1671 10.9999 22.794 7.80681C23.4404 7.49594 24.6716 7.55949 25.5252 7.94856C26.3801 8.33725 26.5492 8.9147 25.9028 9.22557C19.2785 12.4179 22.1218 11.0511 15.4952 14.2439C14.8496 14.5543 13.618 14.4919 12.7621 14.1017C11.9073 13.7111 11.7393 13.1356 12.3846 12.8247ZM1.43231 18.5822L4.61964 17.0849L15.8038 22.3389C17.7638 23.2596 20.7219 23.2596 22.6823 22.3389L33.8661 17.0853L37.0538 18.5822C38.5038 19.2629 38.5038 20.3774 37.0538 21.0584L21.8791 28.187C20.4295 28.868 18.0577 28.868 16.6077 28.187L1.43308 21.0584C-0.0165085 20.3774 -0.0165085 19.2629 1.43308 18.5822H1.43231Z" fill="black"/>
</svg>
